Coordinates
version=1
nRows=24
nColumns=24
inDegrees=yes

Units are S.I. units (second, meters, Newtons, ...)
Angles are in degrees.

endheader
time	pelvis_tilt	pelvis_list	pelvis_rotation	pelvis_tx	pelvis_ty	pelvis_tz	hip_flexion_r	hip_adduction_r	hip_rotation_r	knee_angle_r	ankle_angle_r	subtalar_angle_r	mtp_angle_r	hip_flexion_l	hip_adduction_l	hip_rotation_l	knee_angle_l	ankle_angle_l	subtalar_angle_l	mtp_angle_l	lumbar_extension	lumbar_bending	lumbar_rotation
      5.81000000	      3.94246289	      8.86615891	      8.29480994	      1.14206019	      1.04072881	     -0.27942153	     16.84321040	     -8.78822910	     -9.51861693	      2.17063166	      5.84406844	    -10.03394961	      0.00000000	    -22.82946269	      9.87782549	      9.32702492	     -3.79278133	      7.67652444	    -17.74062216	      0.00000000	    -18.40990890	     -9.83904812	    -18.57963811
      5.82000000	      4.26349801	      8.88854734	      8.39462325	      1.15582379	      1.04043158	     -0.27866796	     16.56422597	     -8.81829334	     -9.90608955	      1.71056540	      5.95342787	    -10.28558814	      0.00000000	    -23.50540532	      9.60041227	      8.82128636	     -4.54239809	      7.47288008	    -16.69183422	      0.00000000	    -18.62328757	     -9.72552514	    -18.71079924
      5.83000000	      4.63944755	      8.89531714	      8.53447756	      1.16988358	      1.04022367	     -0.27794548	     16.24364304	     -8.85698393	    -10.38012742	      0.86211198	      5.96479203	    -10.55375397	      0.00000000	    -24.23037187	      9.27707820	      8.60525969	     -5.32556004	      7.01278613	    -16.06128058	      0.00000000	    -18.86239991	     -9.57835620	    -18.88376882
      5.84000000	      4.98847444	      8.87657397	      8.64439904	      1.18433385	      1.03998697	     -0.27708822	     15.98998953	     -8.88078171	    -10.88835128	     -0.36681378	      6.11566618	    -10.61707024	      0.00000000	    -24.79042594	      8.92289790	      7.78394680	     -6.34373382	      6.86653402	    -14.64576954	      0.00000000	    -19.00280452	     -9.43086011	    -19.03274093
      5.85000000	      5.35264325	      8.83877079	      8.78493141	      1.19916179	      1.03973813	     -0.27619993	     15.69333643	     -8.90237238	    -11.45928923	     -1.81907615	      6.03306819	    -10.80937176	      0.00000000	    -25.33843080	      8.51601807	      7.05455057	     -7.42179044	      6.52364544	    -13.45146145	      0.00000000	    -19.10615149	     -9.26540695	    -19.19658874
      5.86000000	      5.68079231	      8.76699587	      8.96636757	      1.21437394	      1.03942415	     -0.27524875	     15.39312942	     -8.90711651	    -12.13147552	     -3.39454479	      5.68577257	    -11.14799052	      0.00000000	    -25.77406660	      8.03564741	      6.17644289	     -8.63290091	      6.16120702	    -12.11334383	      0.00000000	    -19.10612998	     -9.08420817	    -19.36767836
      5.87000000	      5.98688973	      8.65165842	      9.18894206	      1.22990834	      1.03907834	     -0.27422859	     15.05434235	     -8.87541664	    -12.90810195	     -4.96425127	      4.98475932	    -11.72718808	      0.00000000	    -26.09932180	      7.46465968	      5.17044786	     -9.98647167	      5.69382816	    -10.70396809	      0.00000000	    -19.02997673	     -8.87141842	    -19.54402190
      5.88000000	      6.21302827	      8.46161597	      9.40621217	      1.24570240	      1.03866125	     -0.27308385	     14.76234805	     -8.76663067	    -13.72051254	     -6.45804748	      3.81352749	    -12.65083796	      0.00000000	    -26.23838756	      6.79616598	      3.94260155	    -11.47983326	      5.12820721	     -9.16106260	      0.00000000	    -18.80197767	     -8.62580492	    -19.63830052
      5.89000000	      6.42849244	      8.15627664	      9.59345570	      1.26165286	      1.03830001	     -0.27180798	     14.44323059	     -8.51083861	    -14.44343094	     -7.79794572	      2.24978753	    -14.00116375	      0.00000000	    -26.25162111	      5.98994883	      2.55471222	    -13.10906808	      4.31747899	     -7.65427220	      0.00000000	    -18.51016570	     -8.28201386	    -19.63431066
      5.90000000	      6.64352671	      7.70534130	      9.72452682	      1.27765025	      1.03805840	     -0.27039828	     14.11113541	     -8.05844420	    -14.94975463	     -8.98702596	      0.47908230	    -15.71904578	      0.00000000	    -26.12867870	      5.02965445	      1.03322760	    -14.89209946	      3.18524846	     -6.28779639	      0.00000000	    -18.17082528	     -7.80549033	    -19.50005999
      5.91000000	      6.87250175	      7.10536129	      9.75123733	      1.29359493	      1.03797723	     -0.26883504	     13.79548922	     -7.39019381	    -15.15252897	    -10.10387261	     -1.15518372	    -17.60178963	      0.00000000	    -25.87958575	      3.94009810	     -0.55798507	    -16.83417196	      1.64991562	     -5.20564105	      0.00000000	    -17.81273284	     -7.18884859	    -19.21995603
      5.92000000	      7.10981247	      6.39915319	      9.65652655	      1.30937843	      1.03808574	     -0.26714730	     13.52291634	     -6.55015151	    -15.03138309	    -11.22794870	     -2.48487766	    -19.49551978	      0.00000000	    -25.50109840	      2.79104619	     -2.08228408	    -18.94551068	     -0.32274601	     -4.49762571	      0.00000000	    -17.45347532	     -6.47675889	    -18.76927397
      5.93000000	      7.35738118	      5.59791198	      9.44049836	      1.32492658	      1.03837708	     -0.26535018	     13.29957434	     -5.55581969	    -14.65649597	    -12.43204196	     -3.06656114	    -21.01677424	      0.00000000	    -24.97072931	      1.60045816	     -3.50456503	    -21.27647339	     -2.68551749	     -4.26010589	      0.00000000	    -17.11784183	     -5.66829901	    -18.23881540
      5.94000000	      7.58743251	      4.73330199	      9.14137554	      1.34014970	      1.03882502	     -0.26355262	     13.14870623	     -4.49397960	    -14.37188782	    -13.75997153	     -2.61606366	    -21.63415218	      0.00000000	    -24.24476285	      0.40999925	     -4.69536110	    -23.85931204	     -5.29370352	     -4.49609190	      0.00000000	    -16.80226228	     -4.78443473	    -17.65202456
      5.95000000	      7.78149856	      3.85371703	      8.75860507	      1.35497209	      1.03937819	     -0.26167910	     12.98339209	     -3.35217593	    -13.80338974	    -15.00825144	     -1.87832366	    -22.24424172	      0.00000000	    -23.28829684	     -0.72569750	     -5.62463802	    -26.72210895	     -8.02706794	     -5.13707580	      0.00000000	    -16.51565064	     -3.88998729	    -17.03296848
      5.96000000	      7.86799109	      3.01962142	      8.40205094	      1.36928488	      1.03999248	     -0.25991684	     12.81333589	     -2.25181619	    -13.22939718	    -16.07950801	     -0.88440255	    -22.63852604	      0.00000000	    -22.01768951	     -1.72383048	     -6.02833352	    -29.84440829	    -10.94245067	     -6.51488100	      0.00000000	    -16.21039274	     -3.03681073	    -16.50549139
      5.97000000	      7.88545001	      2.18831515	      8.13847958	      1.38302831	      1.04068370	     -0.25835787	     12.58983980	     -1.20988679	    -13.05610186	    -16.93726528	      0.37177341	    -22.47013642	      0.00000000	    -20.43667571	     -2.67505790	     -6.04738613	    -33.24049387	    -13.87826162	     -8.40704938	      0.00000000	    -15.93844260	     -2.14843776	    -16.10932285
      5.98000000	      7.84361371	      1.33746954	      8.03831855	      1.39619035	      1.04143050	     -0.25707931	     12.26148049	     -0.20314262	    -13.25727645	    -17.47979764	      1.85042655	    -21.83353840	      0.00000000	    -18.55971050	     -3.59541195	     -5.61188248	    -36.85913623	    -16.73440735	    -10.78797417	      0.00000000	    -15.70416604	     -1.18818444	    -15.85455018
      5.99000000	      7.75699411	      0.49156754	      8.13701343	      1.40877090	      1.04223101	     -0.25609460	     11.80548171	      0.76201907	    -13.72650120	    -17.66435578	      3.15246061	    -21.14324600	      0.00000000	    -16.42894735	     -4.45836197	     -4.76168573	    -40.60937307	    -19.55415599	    -13.62139974	      0.00000000	    -15.52354620	     -0.18593887	    -15.77128292
      6.00000000	      7.66431978	     -0.32648415	      8.44453526	      1.42082628	      1.04310257	     -0.25538956	     11.22145947	      1.66679911	    -14.47921561	    -17.55619417	      4.29875314	    -20.39611542	      0.00000000	    -14.13268104	     -5.23733936	     -3.56154615	    -44.38070178	    -22.25670709	    -16.75721448	      0.00000000	    -15.42349839	      0.82430305	    -15.84425178
      6.01000000	      7.60158144	     -1.06706411	      8.93164190	      1.43242856	      1.04408870	     -0.25494394	     10.50977107	      2.48168989	    -15.42895185	    -17.22880102	      5.29741666	    -19.62507180	      0.00000000	    -11.77340267	     -5.86025704	     -2.08610167	    -48.05052078	    -24.68745056	    -20.01486713	      0.00000000	    -15.43168209	      1.78601267	    -16.02008466
      6.02000000	      7.55253405	     -1.67307698	      9.50777214	      1.44371795	      1.04519282	     -0.25458444	      9.71243130	      3.20048705	    -16.27938237	    -16.73695776	      5.97282419	    -19.18136696	      0.00000000	     -9.42258409	     -6.24293766	     -0.46061626	    -51.49338981	    -26.62348396	    -23.24947120	      0.00000000	    -15.50580067	      2.59149959	    -16.22382876
      6.03000000	      7.59062073	     -2.10673515	     10.09954035	      1.45475327	      1.04651638	     -0.25427637	      8.80237009	      3.76820405	    -17.17113557	    -16.21328903	      6.72124401	    -18.54747108	      0.00000000	     -7.22439303	     -6.34960874	      1.19108453	    -54.62875003	    -27.80752641	    -26.34609674	      0.00000000	    -15.73148426	      3.20126416	    -16.35495104
      6.04000000	      7.68367673	     -2.34108643	     10.62859364	      1.46564756	      1.04806106	     -0.25389511	      7.81043523	      4.18463366	    -17.90182822	    -15.67295604	      7.40731697	    -17.97808748	      0.00000000	     -5.20561772	     -6.16510235	      2.74659735	    -57.39232131	    -28.07439489	    -29.16440512	      0.00000000	    -16.06895344	      3.55939276	    -16.35462395
